<?xml version="1.0" encoding="UTF-8" ?>
<!DOCTYPE svg PUBLIC "-//W3C//DTD SVG 1.1//EN" "http://www.w3.org/Graphics/SVG/1.1/DTD/svg11.dtd">
<svg width="950pt" height="958pt" viewBox="0 0 950 958" version="1.1" xmlns="http://www.w3.org/2000/svg">
<path fill="#feffff" d=" M 0.00 0.00 L 950.00 0.00 L 950.00 958.00 L 0.00 958.00 L 0.00 0.00 Z" />
<path fill="#010000" d=" M 227.00 31.00 C 389.88 31.01 552.77 30.99 715.65 31.01 C 715.62 36.36 715.55 41.72 715.99 47.06 C 716.02 58.77 715.99 70.49 716.00 82.20 C 732.00 82.20 748.00 82.21 764.00 82.19 C 764.00 97.48 764.00 112.76 764.00 128.04 C 779.00 128.04 794.00 128.04 809.00 128.04 C 809.00 217.09 809.00 306.14 809.00 395.20 C 809.00 410.46 809.00 425.73 809.00 441.00 C 793.99 441.00 778.98 441.00 763.97 441.00 C 764.06 351.67 763.93 262.35 764.04 173.02 C 762.06 172.55 760.06 172.15 758.03 172.16 C 744.69 172.24 731.34 172.18 718.00 172.20 C 717.99 157.80 718.00 143.40 718.00 129.00 C 703.00 129.00 688.00 129.00 673.00 129.00 C 673.06 113.93 672.88 98.87 673.09 83.80 C 671.76 83.52 670.42 83.23 669.07 83.18 C 537.38 83.22 405.70 83.20 274.01 83.20 C 273.99 98.13 274.01 113.07 274.00 128.00 C 258.33 128.00 242.67 128.00 227.00 128.00 C 227.00 142.07 227.01 156.13 227.00 170.20 C 212.35 170.22 197.70 170.18 183.06 170.20 C 182.97 261.47 182.96 352.73 183.06 444.00 C 165.76 444.02 148.46 443.97 131.16 444.02 C 131.25 428.09 131.36 412.14 131.10 396.20 C 130.87 306.47 131.07 216.73 131.00 127.00 C 145.67 127.00 160.33 127.00 175.00 127.00 C 175.00 112.33 175.00 97.67 175.00 83.00 C 192.33 83.00 209.67 83.00 227.00 83.00 C 227.00 65.67 227.00 48.33 227.00 31.00 Z" />
<path fill="#c49c6a" d=" M 274.01 83.20 C 405.70 83.20 537.38 83.22 669.07 83.18 C 670.42 83.23 671.76 83.52 673.09 83.80 C 672.88 98.87 673.06 113.93 673.00 129.00 C 688.00 129.00 703.00 129.00 718.00 129.00 C 718.00 143.40 717.99 157.80 718.00 172.20 C 731.34 172.18 744.69 172.24 758.03 172.16 C 760.06 172.15 762.06 172.55 764.04 173.02 C 763.93 262.35 764.06 351.67 763.97 441.00 C 763.84 454.65 763.97 468.30 763.92 481.95 C 733.28 482.09 702.64 481.90 672.00 482.05 C 672.00 424.03 672.00 366.02 672.00 308.00 C 643.33 308.00 614.67 308.00 586.00 308.00 C 585.99 380.33 586.02 452.67 585.99 525.00 C 585.94 527.96 585.83 530.93 585.73 533.90 C 533.18 534.23 480.62 533.94 428.06 534.04 C 405.41 533.96 382.75 534.20 360.10 533.92 C 360.05 531.02 359.99 528.13 359.98 525.24 C 360.02 452.83 359.99 380.41 360.00 308.00 C 331.67 308.00 303.33 308.00 275.00 308.00 C 275.00 366.03 274.99 424.07 275.01 482.10 C 272.70 482.58 270.37 483.02 268.01 483.05 C 239.75 482.88 211.49 483.13 183.24 482.92 C 183.15 469.95 183.45 456.97 183.06 444.00 C 182.96 352.73 182.97 261.47 183.06 170.20 C 197.70 170.18 212.35 170.22 227.00 170.20 C 227.01 156.13 227.00 142.07 227.00 128.00 C 242.67 128.00 258.33 128.00 274.00 128.00 C 274.01 113.07 273.99 98.13 274.01 83.20 Z" />
<path fill="#010000" d=" M 275.00 308.00 C 303.33 308.00 331.67 308.00 360.00 308.00 C 359.99 380.41 360.02 452.83 359.98 525.24 C 331.66 525.14 303.33 525.23 275.00 525.19 C 275.00 510.83 275.00 496.46 275.01 482.10 C 274.99 424.07 275.00 366.03 275.00 308.00 Z" />
<path fill="#010000" d=" M 586.00 308.00 C 614.67 308.00 643.33 308.00 672.00 308.00 C 672.00 366.02 672.00 424.03 672.00 482.05 C 672.00 496.36 672.00 510.68 672.00 525.00 C 643.33 525.00 614.66 525.00 585.99 525.00 C 586.02 452.67 585.99 380.33 586.00 308.00 Z" />
<path fill="#c49c6a" d=" M 809.00 395.20 C 837.06 395.19 865.13 395.21 893.19 395.19 C 893.28 440.12 893.21 485.06 893.23 529.99 C 865.17 530.00 837.11 530.00 809.05 530.00 C 808.95 500.33 809.03 470.67 809.00 441.00 C 809.00 425.73 809.00 410.46 809.00 395.20 Z" />
<path fill="#c49c6a" d=" M 47.01 396.19 C 75.04 396.21 103.07 396.18 131.10 396.20 C 131.36 412.14 131.25 428.09 131.16 444.02 C 130.76 472.34 131.14 500.67 130.97 529.00 C 102.98 529.00 74.99 529.00 47.00 529.00 C 47.01 484.73 46.99 440.46 47.01 396.19 Z" />
<path fill="#90734d" d=" M 763.97 441.00 C 778.98 441.00 793.99 441.00 809.00 441.00 C 809.03 470.67 808.95 500.33 809.05 530.00 C 794.03 530.01 779.01 529.99 764.00 530.00 C 764.00 547.33 764.00 564.66 764.00 582.00 C 747.66 582.00 731.33 581.99 715.00 582.00 C 715.00 594.00 715.00 606.00 715.00 618.00 C 686.33 618.00 657.67 618.00 629.00 618.00 C 628.99 633.97 629.02 649.94 628.98 665.91 C 598.98 665.91 568.99 665.97 538.99 665.88 C 493.33 665.75 447.67 665.75 402.01 665.88 C 373.67 665.92 345.34 666.03 317.00 666.00 C 317.00 651.33 317.00 636.67 317.00 622.00 C 287.33 622.00 257.67 622.00 228.00 622.00 C 227.99 608.73 228.01 595.46 227.99 582.19 C 213.00 582.20 198.00 582.20 183.00 582.20 C 183.00 564.46 183.00 546.73 183.00 529.00 C 165.66 529.00 148.32 529.00 130.97 529.00 C 131.14 500.67 130.76 472.34 131.16 444.02 C 148.46 443.97 165.76 444.02 183.06 444.00 C 183.45 456.97 183.15 469.95 183.24 482.92 C 211.49 483.13 239.75 482.88 268.01 483.05 C 270.37 483.02 272.70 482.58 275.01 482.10 C 275.00 496.46 275.00 510.83 275.00 525.19 C 303.33 525.23 331.66 525.14 359.98 525.24 C 359.99 528.13 360.05 531.02 360.10 533.92 C 382.75 534.20 405.41 533.96 428.06 534.04 C 480.62 533.94 533.18 534.23 585.73 533.90 C 585.83 530.93 585.94 527.96 585.99 525.00 C 614.66 525.00 643.33 525.00 672.00 525.00 C 672.00 510.68 672.00 496.36 672.00 482.05 C 702.64 481.90 733.28 482.09 763.92 481.95 C 763.97 468.30 763.84 454.65 763.97 441.00 Z" />
<path fill="#c49c6a" d=" M 360.02 577.01 C 435.31 577.04 510.61 576.92 585.90 577.07 C 585.86 590.40 585.89 603.73 585.87 617.07 C 510.60 617.33 435.31 617.18 360.04 617.14 C 359.97 603.76 360.00 590.39 360.02 577.01 Z" />
<path fill="#c49c6a" d=" M 402.01 665.88 C 447.67 665.75 493.33 665.75 538.99 665.88 C 539.01 679.58 539.00 693.29 539.00 707.00 C 523.68 707.00 508.36 706.99 493.05 707.01 C 493.04 723.33 493.06 739.66 493.04 755.99 C 479.36 756.01 465.68 756.00 452.00 756.00 C 451.99 739.67 452.00 723.33 452.00 707.00 C 435.33 706.99 418.67 707.00 402.00 707.00 C 402.00 693.29 401.99 679.58 402.01 665.88 Z" />
<path fill="#1f86dd" d=" M 361.00 707.00 C 374.67 707.00 388.33 707.00 402.00 707.00 C 418.67 707.00 435.33 706.99 452.00 707.00 C 452.00 723.33 451.99 739.67 452.00 756.00 C 465.68 756.00 479.36 756.01 493.04 755.99 C 493.06 739.66 493.04 723.33 493.05 707.01 C 508.36 706.99 523.68 707.00 539.00 707.00 C 553.00 707.00 567.00 707.00 581.00 707.00 C 581.00 724.00 581.00 741.00 581.00 758.00 C 596.33 758.00 611.67 758.00 627.00 758.00 C 627.00 772.00 627.00 786.00 627.00 800.00 C 642.00 800.00 657.00 800.00 672.00 800.00 C 672.00 815.33 672.00 830.67 672.00 846.00 C 672.00 859.33 672.00 872.67 672.00 886.00 C 657.67 886.00 643.33 886.00 629.00 886.00 C 629.00 872.33 629.00 858.67 629.00 845.00 C 613.00 845.00 597.00 845.00 581.00 845.00 C 581.00 874.00 581.00 903.00 581.00 932.00 C 507.67 932.00 434.33 932.00 361.00 932.00 C 361.00 903.00 361.00 874.00 361.00 845.00 C 345.00 845.00 329.00 845.00 313.00 845.00 C 313.00 858.67 313.00 872.33 313.00 886.00 C 298.67 886.00 284.33 886.00 270.00 886.00 C 270.00 872.67 270.00 859.34 270.00 846.01 C 270.00 830.67 270.00 815.33 270.00 800.00 C 285.00 800.00 300.00 800.00 315.00 800.00 C 315.00 786.00 315.00 772.00 315.00 758.00 C 330.33 758.00 345.67 758.00 361.00 758.00 C 361.00 741.00 361.00 724.00 361.00 707.00 Z" />
<path fill="#c49c6a" d=" M 226.00 846.00 C 240.67 846.00 255.33 845.99 270.00 846.01 C 270.00 859.34 270.00 872.67 270.00 886.00 C 270.00 901.33 270.00 916.66 270.00 932.00 C 255.33 932.00 240.67 932.00 226.00 932.00 C 226.00 903.33 226.00 874.67 226.00 846.00 Z" />
<path fill="#c49c6a" d=" M 672.00 846.00 C 685.33 845.99 698.66 846.00 712.00 846.00 C 712.00 874.67 712.00 903.33 712.00 932.00 C 698.67 932.00 685.33 932.00 672.00 932.00 C 672.00 916.66 672.00 901.33 672.00 886.00 C 672.00 872.67 672.00 859.33 672.00 846.00 Z" />
</svg>
